# xmcd
#
# Track frame offsets:
#	150
#	14797
#	35327
#	52447
#	73950
#	94392
#	113028
#	128300
#	146327
#	165575
#	183446
#	201539
#	214397
#	231442
#	250402
#	265810
#	285017
#	299069
#	318119
#	339269
#
# Disc length: 4759 seconds
#
# Revision: 1
# Processed by: cddbd v1.5.1PL2 Copyright (c) Steve Scherf et al.
# Submitted via: audiograbber 1.83.01
#
DISCID=3d129514
DTITLE=Various Artist - Cream of Country Vol 9
DYEAR=2006
DGENRE=
TTITLE0=Brooks and Dunn - Play Something Country
TTITLE1=Tim Mcgraw - Back When
TTITLE2=Toby Keith - As Good As I Once Was
TTITLE3=Brad Paisley - Alcohol
TTITLE4=Lee Ann Womack - I May Hate Myself In The Morning
TTITLE5=Gretchen Wilson - When I Think About Cheatin'
TTITLE6=Kenny Chesney - Old Blue Chair
TTITLE7=Sara Evans - A Real Fine Place To Start
TTITLE8=Miranda Lambert - Bring Me Down
TTITLE9=Diamon Rio - I Believe
TTITLE10=Lonestar - You're Like Comin' Home
TTITLE11=Martina McBride - Wearing White
TTITLE12=Rascall Flatts - Bless The Broken Road
TTITLE13=Sugarland - Baby Girl
TTITLE14=Alan Jackson - USA Today
TTITLE15=Montgomery Gentry - Something To Be Proud Of
TTITLE16=Julie Roberts - Wake Up Older
TTITLE17=Van Zant - Help Somebody
TTITLE18=Dierks Bentley - Come A Little Closer
TTITLE19=Big and Rich - Big Time
EXTD=
EXTT0=
EXTT1=
EXTT2=
EXTT3=
EXTT4=
EXTT5=
EXTT6=
EXTT7=
EXTT8=
EXTT9=
EXTT10=
EXTT11=
EXTT12=
EXTT13=
EXTT14=
EXTT15=
EXTT16=
EXTT17=
EXTT18=
EXTT19=
PLAYORDER=
